inDegrees=no
num_controls=7
num_derivatives=13
num_iterations=129
num_multipliers=7
num_parameters=0
num_slacks=7
num_states=26
objective=0.518465
objective_accelerations=0.031077
objective_balance=0.003769
objective_effort=0.054950
objective_height=0.423254
objective_ligament=0.005415
solver_duration=1530.822413
status=Solve_Succeeded
success=true
DataType=double
version=3
OpenSimVersion=4.5
endheader
time	/jointset/ground_pelvis/pelvis_tilt/value	/jointset/ground_pelvis/pelvis_tx/value	/jointset/ground_pelvis/pelvis_ty/value	/jointset/hip_r/hip_flexion_r/value	/jointset/hip_r/hip_adduction_r/value	/jointset/hip_r/hip_rotation_r/value	/jointset/back/lumbar_extension/value	/jointset/patellofemoral_r/patellar_flexion_r/value	/jointset/knee_r/knee_flexion_r/value	/jointset/knee_r/knee_adduction_r/value	/jointset/knee_r/knee_rotation_r/value	/jointset/ankle_r/ankle_angle_r/value	/jointset/subtalar_r/subtalar_angle_r/value	/jointset/ground_pelvis/pelvis_tilt/speed	/jointset/ground_pelvis/pelvis_tx/speed	/jointset/ground_pelvis/pelvis_ty/speed	/jointset/hip_r/hip_flexion_r/speed	/jointset/hip_r/hip_adduction_r/speed	/jointset/hip_r/hip_rotation_r/speed	/jointset/back/lumbar_extension/speed	/jointset/patellofemoral_r/patellar_flexion_r/speed	/jointset/knee_r/knee_flexion_r/speed	/jointset/knee_r/knee_adduction_r/speed	/jointset/knee_r/knee_rotation_r/speed	/jointset/ankle_r/ankle_angle_r/speed	/jointset/subtalar_r/subtalar_angle_r/speed	/forceset/tau_hip_flexion_r	/forceset/tau_hip_adduction_r	/forceset/tau_hip_rotation_r	/forceset/tau_knee_flexion_r	/forceset/tau_ankle_angle_r	/forceset/tau_subtalar_angle_r	/forceset/tau_lumbar_extension	lambda_cid13_p0	lambda_cid14_p0	lambda_cid14_p1	lambda_cid14_p2	lambda_cid14_p3	lambda_cid14_p4	lambda_cid14_p5	/jointset/ground_pelvis/pelvis_tilt/accel	/jointset/ground_pelvis/pelvis_tx/accel	/jointset/ground_pelvis/pelvis_ty/accel	/jointset/hip_r/hip_flexion_r/accel	/jointset/hip_r/hip_adduction_r/accel	/jointset/hip_r/hip_rotation_r/accel	/jointset/back/lumbar_extension/accel	/jointset/patellofemoral_r/patellar_flexion_r/accel	/jointset/knee_r/knee_flexion_r/accel	/jointset/knee_r/knee_adduction_r/accel	/jointset/knee_r/knee_rotation_r/accel	/jointset/ankle_r/ankle_angle_r/accel	/jointset/subtalar_r/subtalar_angle_r/accel	gamma_cid13_p0	gamma_cid14_p0	gamma_cid14_p1	gamma_cid14_p2	gamma_cid14_p3	gamma_cid14_p4	gamma_cid14_p5
1.5	-0.05696217410468741	0.06930900210230281	0.8769925732450153	0.6002063820844532	-0.223178728235924	-0.1512199233938948	-0.2538038387194653	0.6439902394319449	0.6439902394320107	0.02906593022525446	0.1745210577982344	0.2735018451903182	0.06931545166147247	0.1197738985623042	0.1287981811314891	0.3085046410504947	-1.315312415317976	0.03241928742484164	-0.2718035829794195	0.7160911888139966	-1.719447200472318	-1.719447200472306	0.2590010108022875	0.000197812804610355	-0.6065803582492207	-0.1386628384388254	-0.02026426080272576	-0.0803993121992925	0.007252719130241813	-0.3601228236133225	0.06436800945257816	0.02478502782188647	0.08874492064760967	-34.40669572222777	-19.46071075872782	14.61691079860939	-10.16326485224754	4.67746339484343	-663.9320476574984	103.9801565249078	-0.1108075403550745	0.1335411583839874	-0.4379553567551793	-0.4493958066529966	-0.0575510336961601	-0.4134951605538602	0.8354762119593252	-1.128684774261474	-1.128684774261475	0.5552261946938453	-0.008823471618449753	-0.714622915699786	-0.1873576433731456	3.776499939889624e-09	-1.038281019144309e-07	-6.443824017381693e-07	-5.079744755976147e-07	1.311872167765997e-07	-8.800355453010704e-08	-1.280893273118992e-07
1.51	-0.05577041115131214	0.07060341600714129	0.8800549701230354	0.5870329910709147	-0.2228578783626934	-0.1539577035667696	-0.2466020997226874	0.6267419676512406	0.6267419676512984	0.03168474005609302	0.1745223267585851	0.2674010507051034	0.06791909663348154	0.1185573849771641	0.1300581212570358	0.3039061586479236	-1.319164708855449	0.03174261358626467	-0.2757636383166308	0.7241306558747858	-1.729945522332653	-1.729945522332643	0.2647330131608749	6.985510328683709e-05	-0.6134915860263862	-0.140586161933954	-0.01560397893485558	-0.08353165818730023	0.006410817953933398	-0.3560520764149725	0.0668128700727732	0.02579928004796941	0.08414679501569901	-35.2883263916693	-18.48046067692251	15.35857776981769	-10.4294753145715	4.352128959737154	-661.034270709965	105.3117076163225	-0.1302573863955682	0.1182401617734235	-0.4810601759679924	-0.3229700229256399	-0.07379672411950167	-0.3888379875971624	0.7692887531062694	-0.9711707643815164	-0.9711707643819206	0.5780488513470531	-0.01255593776276271	-0.6663320434817055	-0.1914195066914504	3.386443362778615e-08	3.253024034860359e-08	-2.030964856147351e-07	3.625108833616193e-07	1.658337988485359e-08	3.902199189095537e-08	-3.089536033058776e-07
1.52	-0.05459145015754905	0.07190963325766189	0.8830693290782377	0.5738271123428753	-0.2225440094608841	-0.1567353997464752	-0.2393237446953081	0.6093965596774401	0.6093965596774914	0.03436004222949814	0.1745227613382486	0.261233752075166	0.06650418840971768	0.1172135066399415	0.131158850267913	0.2988970564869561	-1.321809958218168	0.03102309314044594	-0.2797867843455379	0.7314143949342788	-1.738874439091473	-1.738874439091466	0.2702994793156973	3.093666702489048e-05	-0.619881187193823	-0.1423734775934316	-0.01094369706698344	-0.08666400417530731	0.00556891677762312	-0.351981329216621	0.0692577306929703	0.02681353227405861	0.07954866938378927	-36.13768341334576	-17.51191473701592	16.09077121896803	-10.68569576222896	4.041461433281804	-658.2958540874791	106.6824141176336	-0.1362804907715929	0.1016989354500793	-0.5200793084344584	-0.2079869717020387	-0.06612035514450859	-0.426113298893058	0.6843306117001151	-0.8148037539586954	-0.8148037539587094	0.5221189539408418	0.008984381393862022	-0.6102975937540883	-0.1601560762429189	5.274348543513293e-08	1.048220643866103e-07	-9.987483491855172e-09	8.340205303679949e-07	-3.997205663217775e-08	1.083152996194422e-07	-4.375771000554024e-07
1.53	-0.05342654669055147	0.07322601596676348	0.8860315878993711	0.5606008776943938	-0.2222376856189288	-0.1595533538448209	-0.2319764706556088	0.5919698566562008	0.5919698566561722	0.03709055342166316	0.1745231745147746	0.2550051751945686	0.06507189833829427	0.1157496785098912	0.1320863208762062	0.2934909357325835	-1.323228877834916	0.03022698182726486	-0.2837822501553233	0.737897172737886	-1.746187593974478	-1.746187593974475	0.2757998868961825	4.863796121621149e-05	-0.6257434481293276	-0.1440718318683646	-0.006257560630532886	-0.08991257552032327	0.004765535830124156	-0.347877296012632	0.07169620526492648	0.02779592729137462	0.07493278709534283	-36.95025360725626	-16.55296758668912	16.79701833247637	-10.92586535410546	3.768400962355407	-655.6037315545123	108.0411544026307	-0.1540475538251724	0.08355910018399273	-0.5604201548813585	-0.07761524364060413	-0.08841740800169845	-0.3828729494789107	0.6087653245226915	-0.6477983670533529	-0.6477983670539489	0.5636128201027901	-0.002136742183284264	-0.5605786482375232	-0.1726809915308208	5.971310024439576e-08	1.090432128105256e-07	-8.056645249456124e-08	8.816184834244623e-07	-3.485106775107527e-08	1.162681037370681e-07	-5.106947688576958e-07
